<?xml version="1.0"?>
<svg width="500" height="500" xmlns="http://www.w3.org/2000/svg" xmlns:svg="http://www.w3.org/2000/svg">
 <title>file_type_excel</title>
 <g class="layer">
  <title>Layer 1</title>
  <path d="m57.95,37.05l368.77,0a36.75,36.93 0 0 1 37.07,36.93l0,369.86a36.75,36.93 0 0 1 -37.07,36.93l-368.77,0a36.75,36.93 0 0 1 -36.75,-36.93l0,-369.86a36.75,36.93 0 0 1 36.75,-36.93z" fill="#cccccc" fill-opacity="0.3" id="svg_2"/>
  <path d="m72.96,23.83l368.77,0a36.75,36.93 0 0 1 37.07,36.93l0,369.86a36.75,36.93 0 0 1 -37.07,36.93l-368.77,0a36.75,36.93 0 0 1 -36.75,-36.93l0,-369.86a36.75,36.93 0 0 1 36.75,-36.93z" fill="#ffffff" id="svg_8"/>
  <path d="m87.29,40.73l340.53,0a33.94,34.1 0 0 1 34.23,34.1l0,341.54a33.94,34.1 0 0 1 -34.23,34.1l-340.53,0a33.94,34.1 0 0 1 -33.94,-34.1l0,-341.54a33.94,34.1 0 0 1 33.94,-34.1z" fill="#292d33" id="svg_4"/>
  <g id="svg_34">
   <path d="m90.98,111.52l0,238.08a37.24,37.24 45 0 0 37.24,37.24l238.08,0a37.24,37.24 135 0 0 37.24,-37.24l0,-238.08a37.24,37.24 45 0 0 -37.24,-37.24l-238.08,0a37.24,37.24 135 0 0 -37.24,37.24zm40.79,-8.82l230.87,0a12.38,12.38 45 0 1 12.38,12.38l0,230.87a12.38,12.38 135 0 1 -12.38,12.38l-230.87,0a12.38,12.38 45 0 1 -12.38,-12.38l0,-230.87a12.38,12.38 135 0 1 12.38,-12.38z" fill="#ffffff" id="svg_35" stroke-width="0.79"/>
   <ellipse cx="200.95" cy="195.93" fill="#ffffff" id="svg_36" rx="40.69" ry="40.69"/>
  </g>
  <g id="svg_32">
   <path d="m147.76,342.24l196.79,0c7.19,0 11.52,-5.64 9.64,-12.6l-31.27,-116.15c-1.87,-6.96 -4.98,-11.26 -6.92,-9.61s-5.48,8.49 -7.88,15.29l-25.55,72.18c-2.4,6.8 -7.74,7.54 -11.91,1.67l-22.39,-31.49c-4.18,-5.88 -11.07,-5.96 -15.4,-0.21l-24,31.89c-4.35,5.77 -12.19,6.53 -17.53,1.71l-7.79,-7.01c-5.35,-4.82 -12.77,-3.77 -16.58,2.34l-25.37,40.9c-3.8,6.12 -1.05,11.08 6.16,11.08l-0.01,0.01z" fill="#ffffff" id="svg_33"/>
  </g>
  <g id="svg_24">
   <g id="svg_25">
    <ellipse cx="343.49" cy="333.38" fill="#292d33" id="svg_26" rx="116.01" ry="116.01"/>
    <ellipse cx="343.49" cy="333.38" fill="#ffffff" id="svg_27" rx="86.17" ry="86.17"/>
   </g>
   <g id="svg_28">
    <path d="m326.39,333.38l-41.17,-41.07l-13.66,13.66l27.41,27.41l-27.41,27.41l13.66,13.66l41.17,-41.07z" fill="#292d33" id="svg_29"/>
    <path d="m344.7,401.19c-5.33,0 -9.69,-4.35 -9.69,-9.69l0,-116.24c0,-5.33 4.35,-9.69 9.69,-9.69c5.33,0 9.69,4.35 9.69,9.69l0,116.24c0,5.33 -4.35,9.69 -9.69,9.69z" fill="#292d33" id="svg_30"/>
    <path d="m360.59,333.38l41.17,41.07l13.66,-13.66l-27.41,-27.41l27.41,-27.41l-13.66,-13.66l-41.17,41.07z" fill="#292d33" id="svg_31"/>
   </g>
  </g>
 </g>
</svg>