<?xml version="1.0"?>
<svg width="500" height="500" xmlns="http://www.w3.org/2000/svg" xmlns:svg="http://www.w3.org/2000/svg" version="1.2">
 <g class="layer">
  <title>Layer 1</title>
  <path class="s0" d="m499.1,92.39l0,315.63c0,50.51 -41.16,91.39 -91.55,91.39l-316.2,0c-50.39,0 -91.45,-41.08 -91.45,-91.39l0,-315.63c0,-50.51 40.96,-91.39 91.45,-91.39l316.2,0c50.39,0 91.55,40.98 91.55,91.39z" fill="#292d33" id="svg_5" transform="matrix(1 0 0 1 0 0)"/>
  <g id="svg_1">
   <path d="m69.48,112.5l0,275.01a43.02,43.02 45 0 0 43.02,43.02l275.01,0a43.02,43.02 135 0 0 43.02,-43.02l0,-275.01a43.02,43.02 45 0 0 -43.02,-43.02l-275.01,0a43.02,43.02 135 0 0 -43.02,43.02zm47.12,-10.19l266.68,0a14.3,14.3 45 0 1 14.3,14.3l0,266.68a14.3,14.3 135 0 1 -14.3,14.3l-266.68,0a14.3,14.3 45 0 1 -14.3,-14.3l0,-266.68a14.3,14.3 135 0 1 14.3,-14.3z" fill="#ffffff" id="path2941" stroke-width="0.79"/>
   <ellipse cx="196.5" cy="210" fill="#ffffff" id="svg_4" rx="47" ry="47"/>
  </g>
  <g id="svg_2" transform="matrix(1 0 0 1 0 0)">
   <path d="m135.07,379l227.31,0c8.31,0 13.31,-6.51 11.14,-14.55l-36.12,-134.16c-2.16,-8.04 -5.75,-13.01 -7.99,-11.1s-6.33,9.81 -9.1,17.66l-29.51,83.37c-2.77,7.86 -8.94,8.71 -13.76,1.93l-25.86,-36.37c-4.83,-6.79 -12.79,-6.89 -17.79,-0.24l-27.72,36.84c-5.02,6.66 -14.08,7.54 -20.25,1.97l-9,-8.1c-6.18,-5.57 -14.75,-4.36 -19.15,2.7l-29.31,47.24c-4.39,7.07 -1.21,12.8 7.12,12.8l-0.01,0.01z" fill="#ffffff" id="svg_3"/>
  </g>
  <g id="svg_14">
   <g id="svg_8">
    <ellipse cx="374" cy="364" fill="#292d33" id="svg_6" rx="89" ry="89"/>
    <ellipse cx="374" cy="364" fill="#ffffff" id="svg_7" rx="66.11" ry="66.11"/>
   </g>
   <g id="svg_13">
    <path d="m360.88,364l-31.58,-31.51l-10.48,10.48l21.03,21.03l-21.03,21.03l10.48,10.48l31.58,-31.51z" fill="#292d33" id="svg_10"/>
    <path d="m374.93,416.02c-4.09,0 -7.43,-3.34 -7.43,-7.43l0,-89.18c0,-4.09 3.34,-7.43 7.43,-7.43c4.09,0 7.43,3.34 7.43,7.43l0,89.18c0,4.09 -3.34,7.43 -7.43,7.43z" fill="#292d33" id="svg_11"/>
    <path d="m387.12,364l31.58,31.51l10.48,-10.48l-21.03,-21.03l21.03,-21.03l-10.48,-10.48l-31.58,31.51z" fill="#292d33" id="svg_12"/>
   </g>
  </g>
 </g>
</svg>