<?xml version="1.0"?>
<svg width="500" height="500" xmlns="http://www.w3.org/2000/svg" xmlns:svg="http://www.w3.org/2000/svg" version="1.2">
 <g class="layer">
  <title>Layer 1</title>
  <path class="s0" d="m499.1,92.39l0,315.63c0,50.51 -41.16,91.39 -91.55,91.39l-316.2,0c-50.39,0 -91.45,-41.08 -91.45,-91.39l0,-315.63c0,-50.51 40.96,-91.39 91.45,-91.39l316.2,0c50.39,0 91.55,40.98 91.55,91.39z" fill="#292d33" id="svg_5" transform="matrix(1 0 0 1 0 0)"/>
  <g id="svg_2" transform="matrix(0.995135 0.098523 -0.098523 0.995135 37.3468 -36.2789)">
   <g id="svg_1">
    <path d="m300.37,291.29l0,134.86a21.1,21.1 45 0 0 21.1,21.1l134.86,0a21.1,21.1 135 0 0 21.1,-21.1l0,-134.86a21.1,21.1 45 0 0 -21.1,-21.1l-134.86,0a21.1,21.1 135 0 0 -21.1,21.1zm23.11,-5l130.77,0a7.01,7.01 45 0 1 7.01,7.01l0,130.77a7.01,7.01 135 0 1 -7.01,7.01l-130.77,0a7.01,7.01 45 0 1 -7.01,-7.01l0,-130.77a7.01,7.01 135 0 1 7.01,-7.01z" fill="#ffffff" id="path2941" stroke-width="0.79"/>
    <ellipse cx="362.65" cy="339.1" fill="#ffffff" id="svg_4" rx="23.05" ry="23.05"/>
   </g>
   <path d="m332.53,421.97l111.47,0c4.08,0 6.53,-3.19 5.46,-7.13l-17.71,-65.79c-1.06,-3.94 -2.82,-6.38 -3.92,-5.44s-3.1,4.81 -4.46,8.66l-14.47,40.88c-1.36,3.85 -4.38,4.27 -6.75,0.95l-12.68,-17.83c-2.37,-3.33 -6.27,-3.38 -8.72,-0.12l-13.59,18.07c-2.46,3.27 -6.9,3.7 -9.93,0.97l-4.41,-3.97c-3.03,-2.73 -7.23,-2.14 -9.39,1.32l-14.37,23.17c-2.15,3.47 -0.59,6.28 3.49,6.28l0,0z" fill="#ffffff" id="svg_3"/>
  </g>
  <g id="svg_20" transform="matrix(0.989273 -0.146076 0.146076 0.989273 -52.2568 44.3723)">
   <rect fill="#292d33" height="158" id="svg_19" width="155" x="230.38" y="315.84"/>
   <g id="svg_14">
    <g id="svg_15">
     <path d="m219.36,327.41l0,134.86a21.1,21.1 45 0 0 21.1,21.1l134.86,0a21.1,21.1 135 0 0 21.1,-21.1l0,-134.86a21.1,21.1 45 0 0 -21.1,-21.1l-134.86,0a21.1,21.1 135 0 0 -21.1,21.1zm23.11,-5l130.77,0a7.01,7.01 45 0 1 7.01,7.01l0,130.77a7.01,7.01 135 0 1 -7.01,7.01l-130.77,0a7.01,7.01 45 0 1 -7.01,-7.01l0,-130.77a7.01,7.01 135 0 1 7.01,-7.01z" fill="#ffffff" id="svg_16" stroke-width="0.79"/>
     <ellipse cx="281.65" cy="375.23" fill="#ffffff" id="svg_17" rx="23.05" ry="23.05"/>
    </g>
    <path d="m251.53,458.1l111.47,0c4.08,0 6.53,-3.19 5.46,-7.13l-17.71,-65.79c-1.06,-3.94 -2.82,-6.38 -3.92,-5.44s-3.1,4.81 -4.46,8.66l-14.47,40.88c-1.36,3.85 -4.38,4.27 -6.75,0.95l-12.68,-17.83c-2.37,-3.33 -6.27,-3.38 -8.72,-0.12l-13.59,18.07c-2.46,3.27 -6.9,3.7 -9.93,0.97l-4.41,-3.97c-3.03,-2.73 -7.23,-2.14 -9.39,1.32l-14.37,23.17c-2.15,3.47 -0.59,6.28 3.49,6.28l0,0z" fill="#ffffff" id="svg_18"/>
   </g>
  </g>
  <g id="svg_24" transform="rotate(90 189 191.5)">
   <ellipse cx="188.5" cy="191.5" fill="#292d33" id="svg_22" rx="185" ry="185"/>
   <g id="svg_23">
    <ellipse cx="188.5" cy="191.5" fill="#ffffff" id="svg_21" rx="167.41" ry="167.41"/>
    <g id="svg_13" transform="matrix(0 1.05108 -1.09392 0 477.404 8.25867)">
     <path d="m143.45,264.1l-74.34,-74.17l-24.67,24.67l49.5,49.5l-49.5,49.5l24.67,24.67l74.34,-74.17z" fill="#292d33" id="svg_10"/>
     <path d="m176.53,386.55c-9.63,0 -17.49,-7.86 -17.49,-17.49l0,-209.92c0,-9.63 7.86,-17.49 17.49,-17.49c9.63,0 17.49,7.86 17.49,17.49l0,209.92c0,9.63 -7.86,17.49 -17.49,17.49z" fill="#292d33" id="svg_11"/>
     <path d="m205.22,264.1l74.34,74.17l24.67,-24.67l-49.5,-49.5l49.5,-49.5l-24.67,-24.67l-74.34,74.17z" fill="#292d33" id="svg_12"/>
    </g>
   </g>
  </g>
 </g>
</svg>